<svg xmlns="http://www.w3.org/2000/svg" aria-hidden="true" style="position:absolute;width:0;height:0;overflow:hidden">
  <defs>
    <symbol id="icon-heroicons-solid_menu" viewBox="0 0 32 32">
      <path d="M4.799 8.001c0-.424.169-.831.469-1.131s.707-.469 1.131-.469h19.2c.424 0 .831.169 1.131.469s.469.707.469 1.131-.169.831-.469 1.131c-.3.3-.707.469-1.131.469h-19.2c-.424 0-.831-.169-1.131-.469s-.469-.707-.469-1.131zM4.799 16.001c0-.424.169-.831.469-1.131s.707-.469 1.131-.469h19.2c.424 0 .831.169 1.131.469s.469.707.469 1.131c0 .424-.169.831-.469 1.131s-.707.469-1.131.469h-19.2c-.424 0-.831-.169-1.131-.469s-.469-.707-.469-1.131zM4.799 24.001c0-.424.169-.831.469-1.131s.707-.469 1.131-.469h19.2c.424 0 .831.169 1.131.469s.469.707.469 1.131c0 .424-.169.831-.469 1.131s-.707.469-1.131.469h-19.2c-.424 0-.831-.169-1.131-.469s-.469-.707-.469-1.131z"/>
    </symbol>
  </defs>
</svg>
